<?xml version='1.0' encoding='UTF-8' standalone='no'?>
<!-- Created with Fritzing (http://www.fritzing.org/) -->
<svg xmlns:svg='http://www.w3.org/2000/svg' xmlns='http://www.w3.org/2000/svg' version='1.2' baseProfile='tiny' x='0in' y='0in' width='2.42353in' height='1in' viewBox='0 0 174.494 72' >
<g partID='66140'><g transform='translate(57.0528,0)' ><g xmlns="http://www.w3.org/2000/svg" id="breadboardbreadboard">
 <path xmlns="http://www.w3.org/2000/svg" id="boardoutline" stroke="none" d="M0,0L72,0,72,72,0,72zM5.94,7.2a1.26,1.26,0,1,0,2.52,0,1.26,1.26,0,1,0,-2.52,0zM13.14,7.2a1.26,1.26,0,1,0,2.52,0,1.26,1.26,0,1,0,-2.52,0zM20.34,7.2a1.26,1.26,0,1,0,2.52,0,1.26,1.26,0,1,0,-2.52,0zM27.54,7.2a1.26,1.26,0,1,0,2.52,0,1.26,1.26,0,1,0,-2.52,0zM34.74,7.2a1.26,1.26,0,1,0,2.52,0,1.26,1.26,0,1,0,-2.52,0zM41.94,7.2a1.26,1.26,0,1,0,2.52,0,1.26,1.26,0,1,0,-2.52,0zM49.14,7.2a1.26,1.26,0,1,0,2.52,0,1.26,1.26,0,1,0,-2.52,0zM56.34,7.2a1.26,1.26,0,1,0,2.52,0,1.26,1.26,0,1,0,-2.52,0zM63.54,7.2a1.26,1.26,0,1,0,2.52,0,1.26,1.26,0,1,0,-2.52,0zM5.94,14.4a1.26,1.26,0,1,0,2.52,0,1.26,1.26,0,1,0,-2.52,0zM13.14,14.4a1.26,1.26,0,1,0,2.52,0,1.26,1.26,0,1,0,-2.52,0zM20.34,14.4a1.26,1.26,0,1,0,2.52,0,1.26,1.26,0,1,0,-2.52,0zM27.54,14.4a1.26,1.26,0,1,0,2.52,0,1.26,1.26,0,1,0,-2.52,0zM34.74,14.4a1.26,1.26,0,1,0,2.52,0,1.26,1.26,0,1,0,-2.52,0zM41.94,14.4a1.26,1.26,0,1,0,2.52,0,1.26,1.26,0,1,0,-2.52,0zM49.14,14.4a1.26,1.26,0,1,0,2.52,0,1.26,1.26,0,1,0,-2.52,0zM56.34,14.4a1.26,1.26,0,1,0,2.52,0,1.26,1.26,0,1,0,-2.52,0zM63.54,14.4a1.26,1.26,0,1,0,2.52,0,1.26,1.26,0,1,0,-2.52,0zM5.94,21.6a1.26,1.26,0,1,0,2.52,0,1.26,1.26,0,1,0,-2.52,0zM13.14,21.6a1.26,1.26,0,1,0,2.52,0,1.26,1.26,0,1,0,-2.52,0zM20.34,21.6a1.26,1.26,0,1,0,2.52,0,1.26,1.26,0,1,0,-2.52,0zM27.54,21.6a1.26,1.26,0,1,0,2.52,0,1.26,1.26,0,1,0,-2.52,0zM34.74,21.6a1.26,1.26,0,1,0,2.52,0,1.26,1.26,0,1,0,-2.52,0zM41.94,21.6a1.26,1.26,0,1,0,2.52,0,1.26,1.26,0,1,0,-2.52,0zM49.14,21.6a1.26,1.26,0,1,0,2.52,0,1.26,1.26,0,1,0,-2.52,0zM56.34,21.6a1.26,1.26,0,1,0,2.52,0,1.26,1.26,0,1,0,-2.52,0zM63.54,21.6a1.26,1.26,0,1,0,2.52,0,1.26,1.26,0,1,0,-2.52,0zM5.94,28.8a1.26,1.26,0,1,0,2.52,0,1.26,1.26,0,1,0,-2.52,0zM13.14,28.8a1.26,1.26,0,1,0,2.52,0,1.26,1.26,0,1,0,-2.52,0zM20.34,28.8a1.26,1.26,0,1,0,2.52,0,1.26,1.26,0,1,0,-2.52,0zM27.54,28.8a1.26,1.26,0,1,0,2.52,0,1.26,1.26,0,1,0,-2.52,0zM34.74,28.8a1.26,1.26,0,1,0,2.52,0,1.26,1.26,0,1,0,-2.52,0zM41.94,28.8a1.26,1.26,0,1,0,2.52,0,1.26,1.26,0,1,0,-2.52,0zM49.14,28.8a1.26,1.26,0,1,0,2.52,0,1.26,1.26,0,1,0,-2.52,0zM56.34,28.8a1.26,1.26,0,1,0,2.52,0,1.26,1.26,0,1,0,-2.52,0zM63.54,28.8a1.26,1.26,0,1,0,2.52,0,1.26,1.26,0,1,0,-2.52,0zM5.94,36a1.26,1.26,0,1,0,2.52,0,1.26,1.26,0,1,0,-2.52,0zM13.14,36a1.26,1.26,0,1,0,2.52,0,1.26,1.26,0,1,0,-2.52,0zM20.34,36a1.26,1.26,0,1,0,2.52,0,1.26,1.26,0,1,0,-2.52,0zM27.54,36a1.26,1.26,0,1,0,2.52,0,1.26,1.26,0,1,0,-2.52,0zM34.74,36a1.26,1.26,0,1,0,2.52,0,1.26,1.26,0,1,0,-2.52,0zM41.94,36a1.26,1.26,0,1,0,2.52,0,1.26,1.26,0,1,0,-2.52,0zM49.14,36a1.26,1.26,0,1,0,2.52,0,1.26,1.26,0,1,0,-2.52,0zM56.34,36a1.26,1.26,0,1,0,2.52,0,1.26,1.26,0,1,0,-2.52,0zM63.54,36a1.26,1.26,0,1,0,2.52,0,1.26,1.26,0,1,0,-2.52,0zM5.94,43.2a1.26,1.26,0,1,0,2.52,0,1.26,1.26,0,1,0,-2.52,0zM13.14,43.2a1.26,1.26,0,1,0,2.52,0,1.26,1.26,0,1,0,-2.52,0zM20.34,43.2a1.26,1.26,0,1,0,2.52,0,1.26,1.26,0,1,0,-2.52,0zM27.54,43.2a1.26,1.26,0,1,0,2.52,0,1.26,1.26,0,1,0,-2.52,0zM34.74,43.2a1.26,1.26,0,1,0,2.52,0,1.26,1.26,0,1,0,-2.52,0zM41.94,43.2a1.26,1.26,0,1,0,2.52,0,1.26,1.26,0,1,0,-2.52,0zM49.14,43.2a1.26,1.26,0,1,0,2.52,0,1.26,1.26,0,1,0,-2.52,0zM56.34,43.2a1.26,1.26,0,1,0,2.52,0,1.26,1.26,0,1,0,-2.52,0zM63.54,43.2a1.26,1.26,0,1,0,2.52,0,1.26,1.26,0,1,0,-2.52,0zM5.94,50.4a1.26,1.26,0,1,0,2.52,0,1.26,1.26,0,1,0,-2.52,0zM13.14,50.4a1.26,1.26,0,1,0,2.52,0,1.26,1.26,0,1,0,-2.52,0zM20.34,50.4a1.26,1.26,0,1,0,2.52,0,1.26,1.26,0,1,0,-2.52,0zM27.54,50.4a1.26,1.26,0,1,0,2.52,0,1.26,1.26,0,1,0,-2.52,0zM34.74,50.4a1.26,1.26,0,1,0,2.52,0,1.26,1.26,0,1,0,-2.52,0zM41.94,50.4a1.26,1.26,0,1,0,2.52,0,1.26,1.26,0,1,0,-2.52,0zM49.14,50.4a1.26,1.26,0,1,0,2.52,0,1.26,1.26,0,1,0,-2.52,0zM56.34,50.4a1.26,1.26,0,1,0,2.52,0,1.26,1.26,0,1,0,-2.52,0zM63.54,50.4a1.26,1.26,0,1,0,2.52,0,1.26,1.26,0,1,0,-2.52,0zM5.94,57.6a1.26,1.26,0,1,0,2.52,0,1.26,1.26,0,1,0,-2.52,0zM13.14,57.6a1.26,1.26,0,1,0,2.52,0,1.26,1.26,0,1,0,-2.52,0zM20.34,57.6a1.26,1.26,0,1,0,2.52,0,1.26,1.26,0,1,0,-2.52,0zM27.54,57.6a1.26,1.26,0,1,0,2.52,0,1.26,1.26,0,1,0,-2.52,0zM34.74,57.6a1.26,1.26,0,1,0,2.52,0,1.26,1.26,0,1,0,-2.52,0zM41.94,57.6a1.26,1.26,0,1,0,2.52,0,1.26,1.26,0,1,0,-2.52,0zM49.14,57.6a1.26,1.26,0,1,0,2.52,0,1.26,1.26,0,1,0,-2.52,0zM56.34,57.6a1.26,1.26,0,1,0,2.52,0,1.26,1.26,0,1,0,-2.52,0zM63.54,57.6a1.26,1.26,0,1,0,2.52,0,1.26,1.26,0,1,0,-2.52,0zM5.94,64.8a1.26,1.26,0,1,0,2.52,0,1.26,1.26,0,1,0,-2.52,0zM13.14,64.8a1.26,1.26,0,1,0,2.52,0,1.26,1.26,0,1,0,-2.52,0zM20.34,64.8a1.26,1.26,0,1,0,2.52,0,1.26,1.26,0,1,0,-2.52,0zM27.54,64.8a1.26,1.26,0,1,0,2.52,0,1.26,1.26,0,1,0,-2.52,0zM34.74,64.8a1.26,1.26,0,1,0,2.52,0,1.26,1.26,0,1,0,-2.52,0zM41.94,64.8a1.26,1.26,0,1,0,2.52,0,1.26,1.26,0,1,0,-2.52,0zM49.14,64.8a1.26,1.26,0,1,0,2.52,0,1.26,1.26,0,1,0,-2.52,0zM56.34,64.8a1.26,1.26,0,1,0,2.52,0,1.26,1.26,0,1,0,-2.52,0zM63.54,64.8a1.26,1.26,0,1,0,2.52,0,1.26,1.26,0,1,0,-2.52,0z" stroke-width="0" fill="#deb675" fill-opacity="1"/>
 <path xmlns="http://www.w3.org/2000/svg" stroke-opacity="1" stroke="#deb675" d="M0.288,0.288L71.424,0.288,71.424,71.424,0.288,71.424z" stroke-width="0.576" fill="none"/>
 <circle xmlns="http://www.w3.org/2000/svg" r="1.98" cx="7.2" id="connector0pin" connectorname="0.0" stroke="#c49c59" cy="7.2" stroke-width="1.44" fill="none"/>
 <circle xmlns="http://www.w3.org/2000/svg" r="1.98" cx="14.4" id="connector1pin" connectorname="1.0" stroke="#c49c59" cy="7.2" stroke-width="1.44" fill="none"/>
 <circle xmlns="http://www.w3.org/2000/svg" r="1.98" cx="21.6" id="connector2pin" connectorname="2.0" stroke="#c49c59" cy="7.2" stroke-width="1.44" fill="none"/>
 <circle xmlns="http://www.w3.org/2000/svg" r="1.98" cx="28.8" id="connector3pin" connectorname="3.0" stroke="#c49c59" cy="7.2" stroke-width="1.44" fill="none"/>
 <circle xmlns="http://www.w3.org/2000/svg" r="1.98" cx="36" id="connector4pin" connectorname="4.0" stroke="#c49c59" cy="7.2" stroke-width="1.44" fill="none"/>
 <circle xmlns="http://www.w3.org/2000/svg" r="1.98" cx="43.2" id="connector5pin" connectorname="5.0" stroke="#c49c59" cy="7.2" stroke-width="1.44" fill="none"/>
 <circle xmlns="http://www.w3.org/2000/svg" r="1.98" cx="50.4" id="connector6pin" connectorname="6.0" stroke="#c49c59" cy="7.2" stroke-width="1.44" fill="none"/>
 <circle xmlns="http://www.w3.org/2000/svg" r="1.98" cx="57.6" id="connector7pin" connectorname="7.0" stroke="#c49c59" cy="7.2" stroke-width="1.44" fill="none"/>
 <circle xmlns="http://www.w3.org/2000/svg" r="1.98" cx="64.8" id="connector8pin" connectorname="8.0" stroke="#c49c59" cy="7.2" stroke-width="1.44" fill="none"/>
 <circle xmlns="http://www.w3.org/2000/svg" r="1.98" cx="7.2" id="connector1000pin" connectorname="0.1" stroke="#c49c59" cy="14.4" stroke-width="1.44" fill="none"/>
 <circle xmlns="http://www.w3.org/2000/svg" r="1.98" cx="14.4" id="connector1001pin" connectorname="1.1" stroke="#c49c59" cy="14.4" stroke-width="1.44" fill="none"/>
 <circle xmlns="http://www.w3.org/2000/svg" r="1.98" cx="21.6" id="connector1002pin" connectorname="2.1" stroke="#c49c59" cy="14.4" stroke-width="1.44" fill="none"/>
 <circle xmlns="http://www.w3.org/2000/svg" r="1.98" cx="28.8" id="connector1003pin" connectorname="3.1" stroke="#c49c59" cy="14.4" stroke-width="1.44" fill="none"/>
 <circle xmlns="http://www.w3.org/2000/svg" r="1.98" cx="36" id="connector1004pin" connectorname="4.1" stroke="#c49c59" cy="14.4" stroke-width="1.44" fill="none"/>
 <circle xmlns="http://www.w3.org/2000/svg" r="1.98" cx="43.2" id="connector1005pin" connectorname="5.1" stroke="#c49c59" cy="14.4" stroke-width="1.44" fill="none"/>
 <circle xmlns="http://www.w3.org/2000/svg" r="1.98" cx="50.4" id="connector1006pin" connectorname="6.1" stroke="#c49c59" cy="14.4" stroke-width="1.44" fill="none"/>
 <circle xmlns="http://www.w3.org/2000/svg" r="1.98" cx="57.6" id="connector1007pin" connectorname="7.1" stroke="#c49c59" cy="14.4" stroke-width="1.44" fill="none"/>
 <circle xmlns="http://www.w3.org/2000/svg" r="1.98" cx="64.8" id="connector1008pin" connectorname="8.1" stroke="#c49c59" cy="14.4" stroke-width="1.44" fill="none"/>
 <circle xmlns="http://www.w3.org/2000/svg" r="1.98" cx="7.2" id="connector2000pin" connectorname="0.2" stroke="#c49c59" cy="21.6" stroke-width="1.44" fill="none"/>
 <circle xmlns="http://www.w3.org/2000/svg" r="1.98" cx="14.4" id="connector2001pin" connectorname="1.2" stroke="#c49c59" cy="21.6" stroke-width="1.44" fill="none"/>
 <circle xmlns="http://www.w3.org/2000/svg" r="1.98" cx="21.6" id="connector2002pin" connectorname="2.2" stroke="#c49c59" cy="21.6" stroke-width="1.44" fill="none"/>
 <circle xmlns="http://www.w3.org/2000/svg" r="1.98" cx="28.8" id="connector2003pin" connectorname="3.2" stroke="#c49c59" cy="21.6" stroke-width="1.44" fill="none"/>
 <circle xmlns="http://www.w3.org/2000/svg" r="1.98" cx="36" id="connector2004pin" connectorname="4.2" stroke="#c49c59" cy="21.6" stroke-width="1.44" fill="none"/>
 <circle xmlns="http://www.w3.org/2000/svg" r="1.98" cx="43.2" id="connector2005pin" connectorname="5.2" stroke="#c49c59" cy="21.6" stroke-width="1.44" fill="none"/>
 <circle xmlns="http://www.w3.org/2000/svg" r="1.98" cx="50.4" id="connector2006pin" connectorname="6.2" stroke="#c49c59" cy="21.6" stroke-width="1.44" fill="none"/>
 <circle xmlns="http://www.w3.org/2000/svg" r="1.98" cx="57.6" id="connector2007pin" connectorname="7.2" stroke="#c49c59" cy="21.6" stroke-width="1.44" fill="none"/>
 <circle xmlns="http://www.w3.org/2000/svg" r="1.98" cx="64.8" id="connector2008pin" connectorname="8.2" stroke="#c49c59" cy="21.6" stroke-width="1.44" fill="none"/>
 <circle xmlns="http://www.w3.org/2000/svg" r="1.98" cx="7.2" id="connector3000pin" connectorname="0.3" stroke="#c49c59" cy="28.8" stroke-width="1.44" fill="none"/>
 <circle xmlns="http://www.w3.org/2000/svg" r="1.98" cx="14.4" id="connector3001pin" connectorname="1.3" stroke="#c49c59" cy="28.8" stroke-width="1.44" fill="none"/>
 <circle xmlns="http://www.w3.org/2000/svg" r="1.98" cx="21.6" id="connector3002pin" connectorname="2.3" stroke="#c49c59" cy="28.8" stroke-width="1.44" fill="none"/>
 <circle xmlns="http://www.w3.org/2000/svg" r="1.98" cx="28.8" id="connector3003pin" connectorname="3.3" stroke="#c49c59" cy="28.8" stroke-width="1.44" fill="none"/>
 <circle xmlns="http://www.w3.org/2000/svg" r="1.98" cx="36" id="connector3004pin" connectorname="4.3" stroke="#c49c59" cy="28.8" stroke-width="1.44" fill="none"/>
 <circle xmlns="http://www.w3.org/2000/svg" r="1.98" cx="43.2" id="connector3005pin" connectorname="5.3" stroke="#c49c59" cy="28.8" stroke-width="1.44" fill="none"/>
 <circle xmlns="http://www.w3.org/2000/svg" r="1.98" cx="50.4" id="connector3006pin" connectorname="6.3" stroke="#c49c59" cy="28.8" stroke-width="1.44" fill="none"/>
 <circle xmlns="http://www.w3.org/2000/svg" r="1.98" cx="57.6" id="connector3007pin" connectorname="7.3" stroke="#c49c59" cy="28.8" stroke-width="1.44" fill="none"/>
 <circle xmlns="http://www.w3.org/2000/svg" r="1.98" cx="64.8" id="connector3008pin" connectorname="8.3" stroke="#c49c59" cy="28.8" stroke-width="1.44" fill="none"/>
 <circle xmlns="http://www.w3.org/2000/svg" r="1.98" cx="7.2" id="connector4000pin" connectorname="0.4" stroke="#c49c59" cy="36" stroke-width="1.44" fill="none"/>
 <circle xmlns="http://www.w3.org/2000/svg" r="1.98" cx="14.4" id="connector4001pin" connectorname="1.4" stroke="#c49c59" cy="36" stroke-width="1.44" fill="none"/>
 <circle xmlns="http://www.w3.org/2000/svg" r="1.98" cx="21.6" id="connector4002pin" connectorname="2.4" stroke="#c49c59" cy="36" stroke-width="1.44" fill="none"/>
 <circle xmlns="http://www.w3.org/2000/svg" r="1.98" cx="28.8" id="connector4003pin" connectorname="3.4" stroke="#c49c59" cy="36" stroke-width="1.44" fill="none"/>
 <circle xmlns="http://www.w3.org/2000/svg" r="1.98" cx="36" id="connector4004pin" connectorname="4.4" stroke="#c49c59" cy="36" stroke-width="1.44" fill="none"/>
 <circle xmlns="http://www.w3.org/2000/svg" r="1.98" cx="43.2" id="connector4005pin" connectorname="5.4" stroke="#c49c59" cy="36" stroke-width="1.44" fill="none"/>
 <circle xmlns="http://www.w3.org/2000/svg" r="1.98" cx="50.4" id="connector4006pin" connectorname="6.4" stroke="#c49c59" cy="36" stroke-width="1.44" fill="none"/>
 <circle xmlns="http://www.w3.org/2000/svg" r="1.98" cx="57.6" id="connector4007pin" connectorname="7.4" stroke="#c49c59" cy="36" stroke-width="1.44" fill="none"/>
 <circle xmlns="http://www.w3.org/2000/svg" r="1.98" cx="64.8" id="connector4008pin" connectorname="8.4" stroke="#c49c59" cy="36" stroke-width="1.44" fill="none"/>
 <circle xmlns="http://www.w3.org/2000/svg" r="1.98" cx="7.2" id="connector5000pin" connectorname="0.5" stroke="#c49c59" cy="43.2" stroke-width="1.44" fill="none"/>
 <circle xmlns="http://www.w3.org/2000/svg" r="1.98" cx="14.4" id="connector5001pin" connectorname="1.5" stroke="#c49c59" cy="43.2" stroke-width="1.44" fill="none"/>
 <circle xmlns="http://www.w3.org/2000/svg" r="1.98" cx="21.6" id="connector5002pin" connectorname="2.5" stroke="#c49c59" cy="43.2" stroke-width="1.44" fill="none"/>
 <circle xmlns="http://www.w3.org/2000/svg" r="1.98" cx="28.8" id="connector5003pin" connectorname="3.5" stroke="#c49c59" cy="43.2" stroke-width="1.44" fill="none"/>
 <circle xmlns="http://www.w3.org/2000/svg" r="1.98" cx="36" id="connector5004pin" connectorname="4.5" stroke="#c49c59" cy="43.2" stroke-width="1.44" fill="none"/>
 <circle xmlns="http://www.w3.org/2000/svg" r="1.98" cx="43.2" id="connector5005pin" connectorname="5.5" stroke="#c49c59" cy="43.2" stroke-width="1.44" fill="none"/>
 <circle xmlns="http://www.w3.org/2000/svg" r="1.98" cx="50.4" id="connector5006pin" connectorname="6.5" stroke="#c49c59" cy="43.2" stroke-width="1.44" fill="none"/>
 <circle xmlns="http://www.w3.org/2000/svg" r="1.98" cx="57.6" id="connector5007pin" connectorname="7.5" stroke="#c49c59" cy="43.2" stroke-width="1.44" fill="none"/>
 <circle xmlns="http://www.w3.org/2000/svg" r="1.98" cx="64.8" id="connector5008pin" connectorname="8.5" stroke="#c49c59" cy="43.2" stroke-width="1.44" fill="none"/>
 <circle xmlns="http://www.w3.org/2000/svg" r="1.98" cx="7.2" id="connector6000pin" connectorname="0.6" stroke="#c49c59" cy="50.4" stroke-width="1.44" fill="none"/>
 <circle xmlns="http://www.w3.org/2000/svg" r="1.98" cx="14.4" id="connector6001pin" connectorname="1.6" stroke="#c49c59" cy="50.4" stroke-width="1.44" fill="none"/>
 <circle xmlns="http://www.w3.org/2000/svg" r="1.98" cx="21.6" id="connector6002pin" connectorname="2.6" stroke="#c49c59" cy="50.4" stroke-width="1.44" fill="none"/>
 <circle xmlns="http://www.w3.org/2000/svg" r="1.98" cx="28.8" id="connector6003pin" connectorname="3.6" stroke="#c49c59" cy="50.4" stroke-width="1.44" fill="none"/>
 <circle xmlns="http://www.w3.org/2000/svg" r="1.98" cx="36" id="connector6004pin" connectorname="4.6" stroke="#c49c59" cy="50.4" stroke-width="1.44" fill="none"/>
 <circle xmlns="http://www.w3.org/2000/svg" r="1.98" cx="43.2" id="connector6005pin" connectorname="5.6" stroke="#c49c59" cy="50.4" stroke-width="1.44" fill="none"/>
 <circle xmlns="http://www.w3.org/2000/svg" r="1.98" cx="50.4" id="connector6006pin" connectorname="6.6" stroke="#c49c59" cy="50.4" stroke-width="1.44" fill="none"/>
 <circle xmlns="http://www.w3.org/2000/svg" r="1.98" cx="57.6" id="connector6007pin" connectorname="7.6" stroke="#c49c59" cy="50.4" stroke-width="1.44" fill="none"/>
 <circle xmlns="http://www.w3.org/2000/svg" r="1.98" cx="64.8" id="connector6008pin" connectorname="8.6" stroke="#c49c59" cy="50.4" stroke-width="1.44" fill="none"/>
 <circle xmlns="http://www.w3.org/2000/svg" r="1.98" cx="7.2" id="connector7000pin" connectorname="0.7" stroke="#c49c59" cy="57.6" stroke-width="1.44" fill="none"/>
 <circle xmlns="http://www.w3.org/2000/svg" r="1.98" cx="14.4" id="connector7001pin" connectorname="1.7" stroke="#c49c59" cy="57.6" stroke-width="1.44" fill="none"/>
 <circle xmlns="http://www.w3.org/2000/svg" r="1.98" cx="21.6" id="connector7002pin" connectorname="2.7" stroke="#c49c59" cy="57.6" stroke-width="1.44" fill="none"/>
 <circle xmlns="http://www.w3.org/2000/svg" r="1.98" cx="28.8" id="connector7003pin" connectorname="3.7" stroke="#c49c59" cy="57.6" stroke-width="1.44" fill="none"/>
 <circle xmlns="http://www.w3.org/2000/svg" r="1.98" cx="36" id="connector7004pin" connectorname="4.7" stroke="#c49c59" cy="57.6" stroke-width="1.44" fill="none"/>
 <circle xmlns="http://www.w3.org/2000/svg" r="1.98" cx="43.2" id="connector7005pin" connectorname="5.7" stroke="#c49c59" cy="57.6" stroke-width="1.44" fill="none"/>
 <circle xmlns="http://www.w3.org/2000/svg" r="1.98" cx="50.4" id="connector7006pin" connectorname="6.7" stroke="#c49c59" cy="57.6" stroke-width="1.44" fill="none"/>
 <circle xmlns="http://www.w3.org/2000/svg" r="1.98" cx="57.6" id="connector7007pin" connectorname="7.7" stroke="#c49c59" cy="57.6" stroke-width="1.44" fill="none"/>
 <circle xmlns="http://www.w3.org/2000/svg" r="1.98" cx="64.8" id="connector7008pin" connectorname="8.7" stroke="#c49c59" cy="57.6" stroke-width="1.44" fill="none"/>
 <circle xmlns="http://www.w3.org/2000/svg" r="1.98" cx="7.2" id="connector8000pin" connectorname="0.8" stroke="#c49c59" cy="64.8" stroke-width="1.44" fill="none"/>
 <circle xmlns="http://www.w3.org/2000/svg" r="1.98" cx="14.4" id="connector8001pin" connectorname="1.8" stroke="#c49c59" cy="64.8" stroke-width="1.44" fill="none"/>
 <circle xmlns="http://www.w3.org/2000/svg" r="1.98" cx="21.6" id="connector8002pin" connectorname="2.8" stroke="#c49c59" cy="64.8" stroke-width="1.44" fill="none"/>
 <circle xmlns="http://www.w3.org/2000/svg" r="1.98" cx="28.8" id="connector8003pin" connectorname="3.8" stroke="#c49c59" cy="64.8" stroke-width="1.44" fill="none"/>
 <circle xmlns="http://www.w3.org/2000/svg" r="1.98" cx="36" id="connector8004pin" connectorname="4.8" stroke="#c49c59" cy="64.8" stroke-width="1.44" fill="none"/>
 <circle xmlns="http://www.w3.org/2000/svg" r="1.98" cx="43.2" id="connector8005pin" connectorname="5.8" stroke="#c49c59" cy="64.8" stroke-width="1.44" fill="none"/>
 <circle xmlns="http://www.w3.org/2000/svg" r="1.98" cx="50.4" id="connector8006pin" connectorname="6.8" stroke="#c49c59" cy="64.8" stroke-width="1.44" fill="none"/>
 <circle xmlns="http://www.w3.org/2000/svg" r="1.98" cx="57.6" id="connector8007pin" connectorname="7.8" stroke="#c49c59" cy="64.8" stroke-width="1.44" fill="none"/>
 <circle xmlns="http://www.w3.org/2000/svg" r="1.98" cx="64.8" id="connector8008pin" connectorname="8.8" stroke="#c49c59" cy="64.8" stroke-width="1.44" fill="none"/>
</g>
</g></g><path stroke='#8c8c8c' stroke-width='2.0952' stroke-linecap='round' stroke-linejoin='round' fill='none' d='M92.0098,50.4L93.0524,50.4' />
<path stroke='#8c8c8c' stroke-width='2.0952' stroke-linecap='round' stroke-linejoin='round' fill='none' d='M65.3,50.4L64.2524,50.4' />
<g partID='65680'><g transform='translate(63.2048,46.7676)' ><g xmlns="http://www.w3.org/2000/svg" id="breadboard">
 <rect xmlns="http://www.w3.org/2000/svg" id="connector0pin" y="2.5848" x="0.36" height="0.72" width="0.72" fill="none"/>
 <rect xmlns="http://www.w3.org/2000/svg" id="connector1pin" y="2.5848" x="29.8202" height="0.72" width="0.72" fill="none"/>
 <line xmlns="http://www.w3.org/2000/svg" y1="3.6324" y2="3.6324" x2="2.0952" id="connector0leg" stroke="#8C8C8C" x1="1.0476" stroke-width="2.0952" stroke-linecap="round" fill="none"/>
 <line xmlns="http://www.w3.org/2000/svg" y1="3.6324" y2="3.6324" x2="28.805" id="connector1leg" stroke="#8C8C8C" x1="29.8526" stroke-width="2.0952" stroke-linecap="round" fill="none"/>
 <path xmlns="http://www.w3.org/2000/svg" stroke="#8C8C8C" d="M1.0476,3.6324l28.3666,0" stroke-width="2.0952" fill="none"/>
 <path xmlns="http://www.w3.org/2000/svg" id="body" d="M10.2478,0.49536c-0.36,-0.1656,-0.9792,-0.2952,-1.3752,-0.2952l-1.9872,0c-0.396,0,-0.72,0.324,-0.72,0.72l0,5.35608c0,0.39672,0.324,0.72,0.72,0.72l1.9872,0c0.396,0,1.0152,-0.13608,1.3752,-0.2952l0.072,-0.03528c0.36,-0.1656,0.9792,-0.2952,1.3752,-0.2952l7.1856,0c0.39672,0,1.01448,0.13608,1.37448,0.2952l0.07272,0.03528c0.36,0.1656,0.97776,0.2952,1.3752,0.2952l1.9872,0c0.39744,0,0.72,-0.32328,0.72,-0.72L24.4102,0.92016c0,-0.396,-0.32256,-0.72,-0.72,-0.72l-1.9872,0c-0.39744,0,-1.0152,0.1368,-1.3752,0.2952l-0.07272,0.036c-0.36,0.1656,-0.97776,0.2952,-1.37448,0.2952l-7.1856,0c-0.396,0,-1.0152,-0.1368,-1.3752,-0.2952L10.2478,0.49536z" fill="#D9B477"/>
 <rect xmlns="http://www.w3.org/2000/svg" id="gold_band" y="0.19368" x="22.019" height="6.79536" width="0.70272" fill="#ad9f4e"/>
 <rect xmlns="http://www.w3.org/2000/svg" id="band_rd_multiplier" y="0.82656" x="16.1726" height="5.5368" width="1.8504" fill="#c40808"/>
 <rect xmlns="http://www.w3.org/2000/svg" id="band_2_nd" y="0.82656" x="12.4726" height="5.5368" width="1.8504" fill="#000000"/>
 <path xmlns="http://www.w3.org/2000/svg" id="band_1_st" d="M10.6286,0.63936c-0.1152,-0.036,-0.2232,-0.072,-0.3096,-0.1152l-0.072,-0.036c-0.36,-0.16488,-0.9792,-0.2952,-1.3752,-0.2952l-0.0864,0l0,6.79608l0.0864,0c0.396,0,1.0152,-0.13608,1.3752,-0.2952l0.072,-0.03528c0.0864,-0.04464,0.1944,-0.07992,0.3096,-0.1152L10.6286,0.63936z" fill="#8a3d06"/>
 <path xmlns="http://www.w3.org/2000/svg" opacity="0.3" id="Shadow" d="M23.711,4.0896L23.711,4.0896c0,0.37944,-0.13032,0.69912,-0.2952,0.69912l-1.9224,0c-0.38016,0,-0.97776,-0.05616,-1.33272,-0.1224L20.088,4.65048c-0.34488,-0.0648,-0.94896,-0.1224,-1.33344,-0.1224L11.808,4.52808c-0.3816,0,-0.9792,0.0576,-1.332,0.1224l-0.072,0.01512c-0.3456,0.06552,-0.9432,0.1224,-1.332,0.1224l-0.3168,0l-1.0008,0l-0.3096,0c-0.3816,0,-0.6984,0.29376,-0.6984,0.64512l0,0.24696L6.7464,5.8392l0,0.1728c0,0.36,0.3168,0.64512,0.6984,0.64512l1.62,0c0.3816,0,0.9792,-0.1224,1.332,-0.26712l0.072,-0.02808c0.3456,-0.14112,0.9504,-0.26496,1.332,-0.26496l6.94656,0c0.37944,0,0.97704,0.12384,1.33416,0.26568l0.07416,0.02808c0.34488,0.14472,0.94464,0.26712,1.33344,0.26712l2.2248,0c0.38088,0,0.69912,-0.2952,0.69912,-0.64512L24.413,5.472L24.413,4.49928L24.413,2.65536C24.1358,2.76336,23.711,3.06576,23.711,4.0896z"/>
 <rect xmlns="http://www.w3.org/2000/svg" opacity="0.4" id="ShadowExtra" y="3.48336" x="22.019" height="3.15288" width="0.70272"/>
 <path xmlns="http://www.w3.org/2000/svg" opacity="0.25" id="ReflexRight" d="M19.751,1.08576c0.22968,0,0.49104,-0.1008,0.6624,-0.1728c0.2016,-0.0792,0.57672,-0.144,0.96624,-0.144l1.46088,0c0.22464,0,0.22464,0.2448,0.22464,0.3744c0,0.1296,-0.01512,0.3816,-0.22464,0.3816l-3.06,0c-0.10728,0,-0.2304,-0.1152,-0.2304,-0.22392C19.5566,1.21536,19.6286,1.08576,19.751,1.08576z" fill="#FFFFFF"/>
 <circle xmlns="http://www.w3.org/2000/svg" opacity="0.35" r="0.432" id="ReflexLeft" cx="6.99984" cy="1.13616" fill="#FFFFFF"/>
 <rect xmlns="http://www.w3.org/2000/svg" opacity="0.5" id="Reflex_gold" y="0.42336" x="22.019" height="1.62" width="0.70272" fill="#FFFF33"/>
 <rect xmlns="http://www.w3.org/2000/svg" opacity="0.5" id="Reflex_extra" y="0.78336" x="22.019" height="0.7488" width="0.70272" fill="#FFFFFF"/>
</g>
</g></g><g partID='67440'><g transform='translate(0,35.6244)' ><g xmlns="http://www.w3.org/2000/svg" id="breadboard">
 <text xmlns="http://www.w3.org/2000/svg" font-size="3.77953" font-family="Droid Sans" id="label" y="3.40158" stroke-width="0" xml:space="preserve" xmlns:xml="http://www.w3.org/XML/1998/namespace" x="28.3465" fill="#000000" text-anchor="middle">Arduino &amp; power</text>
</g>
</g></g><g partID='73710'><g transform='translate(127.25,52.6174)' ><g xmlns="http://www.w3.org/2000/svg" id="breadboard">
 <text xmlns="http://www.w3.org/2000/svg" font-family="Droid Sans" font-size="3.14961" id="label" y="2.83465" stroke-width="0" xml:space="preserve" xmlns:xml="http://www.w3.org/XML/1998/namespace" x="23.622" fill="#000000" text-anchor="middle">HC-05 bluetooth</text>
</g>
</g></g><path stroke='#8c8c8c' stroke-width='2.90997' stroke-linecap='round' stroke-linejoin='round' fill='none' d='M93.2465,50.3521L93.053,50.4' />
<path stroke='#8c8c8c' stroke-width='2.90997' stroke-linecap='round' stroke-linejoin='round' fill='none' d='M93.2465,22.4074L93.053,21.6' />
<g partID='65970'><g transform='translate(96.6854,20.5524)' ><g transform='matrix(0,1,-1,0,0,0)'  ><g xmlns="http://www.w3.org/2000/svg" id="breadboard">
 <rect xmlns="http://www.w3.org/2000/svg" id="connector0pin" y="2.39198" x="1.45499" height="0.719993" width="0.719993" fill="none"/>
 <rect xmlns="http://www.w3.org/2000/svg" id="connector1pin" y="2.39198" x="28.1647" height="0.719993" width="0.720993" fill="none"/>
 <line xmlns="http://www.w3.org/2000/svg" y1="3.43897" y2="3.43897" x2="1.85498" id="connector0leg" stroke="#8C8C8C" stroke-width="2.90997" x1="1.45499" stroke-linecap="round" fill="none"/>
 <line xmlns="http://www.w3.org/2000/svg" y1="3.43897" y2="3.43897" x2="29.7997" id="connector1leg" stroke="#8C8C8C" stroke-width="2.90997" x1="30.1997" stroke-linecap="round" fill="none"/>
 <path xmlns="http://www.w3.org/2000/svg" stroke="#8C8C8C" d="M1.45499,3.43897l28.3157,0" stroke-width="2.90997" fill="none"/>
 <path xmlns="http://www.w3.org/2000/svg" id="body" d="M10.6549,0.301997c-0.359996,-0.165998,-0.97899,-0.294997,-1.37499,-0.294997L7.29293,0.00699993c-0.395996,0,-0.719993,0.323997,-0.719993,0.719993l0,5.35595c0,0.395996,0.323997,0.719993,0.719993,0.719993L9.27991,6.80293c0.395996,0,1.01499,-0.135999,1.37499,-0.295997l0.0719993,-0.0349997c0.359996,-0.164998,0.97899,-0.294997,1.37499,-0.294997l7.18493,0c0.396996,0,1.01599,0.136999,1.37499,0.294997l0.0719993,0.0349997c0.360996,0.165998,0.97899,0.295997,1.37599,0.295997l1.98698,0c0.395996,0,0.719993,-0.322997,0.719993,-0.719993L24.8168,0.726993c0,-0.395996,-0.322997,-0.719993,-0.719993,-0.719993l-1.98698,0c-0.396996,0,-1.01499,0.136999,-1.37599,0.294997l-0.0719993,0.0359996c-0.358996,0.165998,-0.97799,0.294997,-1.37499,0.294997l-7.18493,0c-0.395996,0,-1.01499,-0.136999,-1.37499,-0.294997L10.6549,0.301997z" fill="#7BC6B8"/>
 <rect xmlns="http://www.w3.org/2000/svg" id="gold_band" y="0" x="22.4258" height="6.79593" width="0.702993" fill="#ad9f4e"/>
 <rect xmlns="http://www.w3.org/2000/svg" id="band_3" y="0.632994" x="15.1398" height="5.53694" width="1.85098" fill="#000000"/>
 <rect xmlns="http://www.w3.org/2000/svg" id="band_2_nd" y="0.632994" x="12.1599" height="5.53694" width="1.84998" fill="#000000"/>
 <path xmlns="http://www.w3.org/2000/svg" id="band_rd_multiplier" d="M18.0038,0.635994c0,0,1.19699,0,1.39999,0s0.437996,-0.0629994,0.437996,-0.0629994l0,5.67194c0,0,-0.202998,-0.0649994,-0.437996,-0.0649994s-1.39999,-0.00699993,-1.39999,-0.00699993L18.0038,0.635994z" fill="#8a3d06"/>
 <path xmlns="http://www.w3.org/2000/svg" id="band_1_st" d="M11.0359,0.445996c-0.114999,-0.0359996,-0.222998,-0.0719993,-0.309997,-0.114999l-0.0719993,-0.0359996C10.2949,0.129999,9.6759,0,9.27991,0L9.19291,0l0,6.79593L9.27991,6.79593c0.395996,0,1.01499,-0.136999,1.37499,-0.294997l0.0719993,-0.0359996c0.0859991,-0.0439996,0.194998,-0.0789992,0.309997,-0.114999L11.0369,0.445996z" fill="#c40808"/>
 <path xmlns="http://www.w3.org/2000/svg" id="Shadow" d="M24.1188,3.89596L24.1188,3.89596c0,0.379996,-0.129999,0.698993,-0.294997,0.698993l-1.92298,0c-0.379996,0,-0.97799,-0.0559994,-1.33199,-0.121999l-0.0729993,-0.0159998c-0.344997,-0.0649994,-0.947991,-0.121999,-1.33299,-0.121999l-6.94693,0c-0.381996,0,-0.97899,0.0569994,-1.33199,0.121999l-0.0719993,0.0149999c-0.344997,0.0659993,-0.942991,0.122999,-1.33199,0.122999L9.16291,4.59495L8.16192,4.59495l-0.309997,0c-0.381996,0,-0.697993,0.292997,-0.697993,0.644994l0,0.246998l0,0.158998l0,0.172998c0,0.359996,0.315997,0.645994,0.697993,0.645994l1.61998,0c0.380996,0,0.97899,-0.122999,1.33199,-0.267997l0.0719993,-0.0269997c0.345997,-0.141999,0.95099,-0.265997,1.33199,-0.265997l6.94593,0c0.379996,0,0.97799,0.123999,1.33399,0.265997l0.0739993,0.0279997c0.345997,0.144999,0.944991,0.266997,1.33399,0.266997l2.22498,0c0.380996,0,0.698993,-0.294997,0.698993,-0.644994L24.8198,5.27895L24.8198,4.30596L24.8198,2.46198C24.5428,2.56997,24.1188,2.87297,24.1188,3.89596z" fill="#000000" fill-opacity="0.4"/>
 <rect xmlns="http://www.w3.org/2000/svg" id="ShadowExtra" y="3.28997" x="22.4258" height="3.15297" width="0.702993"/>
 <path xmlns="http://www.w3.org/2000/svg" id="ReflexRight" d="M20.1588,0.892991c0.229998,0,0.490995,-0.100999,0.661993,-0.172998c0.201998,-0.0789992,0.576994,-0.143999,0.96699,-0.143999l1.46099,0c0.224998,0,0.224998,0.244998,0.224998,0.374996c0,0.129999,-0.0159998,0.381996,-0.224998,0.381996l-3.06097,0c-0.106999,0,-0.229998,-0.114999,-0.229998,-0.223998C19.9638,1.02199,20.0358,0.892991,20.1588,0.892991z" fill="#FFFFFF"/>
 <circle xmlns="http://www.w3.org/2000/svg" r="0.431996" id="ReflexLeft" cx="7.40793" cy="0.942991" fill="#FFFFFF"/>
 <rect xmlns="http://www.w3.org/2000/svg" id="Reflex_gold" y="0.229998" x="22.4258" height="1.61998" width="0.702993" fill="#FFFF33"/>
 <rect xmlns="http://www.w3.org/2000/svg" id="Reflex_extra" y="0.589994" x="22.4258" height="0.748993" width="0.702993" fill="#FFFFFF"/>
</g>
</g></g></g><g partID='73740'><line stroke-linecap='round' stroke='#00a527' x1='64.2528' y1='43.2' x2='121.853' y2='43.2' stroke-width='3.2' /><line stroke-linecap='round' stroke='#25cc35' x1='64.2528' y1='43.2' x2='121.853' y2='43.2' stroke-width='1.6' /></g><g partID='66210'><line stroke-linecap='round' stroke='#00a527' x1='165.736' y1='43.0995' x2='121.853' y2='43.2' stroke-width='3.2' /><line stroke-linecap='round' stroke='#25cc35' x1='165.736' y1='43.0995' x2='121.853' y2='43.2' stroke-width='1.6' /></g><g partID='66300'><line stroke-linecap='round' stroke='#d6d63a' x1='164.538' y1='49.4883' x2='93.0526' y2='50.4' stroke-width='3.2' /><line stroke-linecap='round' stroke='#fff800' x1='164.538' y1='49.4883' x2='93.0526' y2='50.4' stroke-width='1.6' /></g><g partID='66390'><line stroke-linecap='round' stroke='#000000' x1='30.372' y1='29.9226' x2='64.2526' y2='21.6' stroke-width='3.2' /><line stroke-linecap='round' stroke='#404040' x1='30.372' y1='29.9226' x2='64.2526' y2='21.6' stroke-width='1.6' /></g><g partID='66450'><line stroke-linecap='round' stroke='#8c0000' x1='29.5736' y1='21.9365' x2='64.2527' y2='14.4' stroke-width='3.2' /><line stroke-linecap='round' stroke='#cc1414' x1='29.5736' y1='21.9365' x2='64.2527' y2='14.4' stroke-width='1.6' /></g><g partID='66590'><line stroke-linecap='round' stroke='#8c0000' x1='164.937' y1='28.7246' x2='121.852' y2='28.8' stroke-width='3.2' /><line stroke-linecap='round' stroke='#cc1414' x1='164.937' y1='28.7246' x2='121.852' y2='28.8' stroke-width='1.6' /></g><g partID='66620'><line stroke-linecap='round' stroke='#000000' x1='164.937' y1='35.5128' x2='121.852' y2='36' stroke-width='3.2' /><line stroke-linecap='round' stroke='#404040' x1='164.937' y1='35.5128' x2='121.852' y2='36' stroke-width='1.6' /></g><g partID='66720'><line stroke-linecap='round' stroke='#00a527' x1='22.3864' y1='50.287' x2='64.253' y2='43.2' stroke-width='3.2' /><line stroke-linecap='round' stroke='#25cc35' x1='22.3864' y1='50.287' x2='64.253' y2='43.2' stroke-width='1.6' /></g><g partID='66750'><line stroke-linecap='round' stroke='#000000' x1='64.2528' y1='21.6' x2='93.0528' y2='21.6' stroke-width='3.2' /><line stroke-linecap='round' stroke='#404040' x1='64.2528' y1='21.6' x2='93.0528' y2='21.6' stroke-width='1.6' /></g><g partID='66820'><line stroke-linecap='round' stroke='#000000' x1='93.0528' y1='21.6' x2='121.853' y2='36' stroke-width='3.2' /><line stroke-linecap='round' stroke='#404040' x1='93.0528' y1='21.6' x2='121.853' y2='36' stroke-width='1.6' /></g><g partID='66850'><line stroke-linecap='round' stroke='#8c0000' x1='121.853' y1='28.8' x2='121.812' y2='14.3498' stroke-width='3.2' /><line stroke-linecap='round' stroke='#cc1414' x1='121.853' y1='28.8' x2='121.812' y2='14.3498' stroke-width='1.6' /></g><g partID='66920'><line stroke-linecap='round' stroke='#8c0000' x1='121.813' y1='14.3498' x2='64.2531' y2='14.4' stroke-width='3.2' /><line stroke-linecap='round' stroke='#cc1414' x1='121.813' y1='14.3498' x2='64.2531' y2='14.4' stroke-width='1.6' /></g><g partID='66950'><line stroke-linecap='round' stroke='#d6d63a' x1='29.5736' y1='57.8737' x2='64.2527' y2='50.4' stroke-width='3.2' /><line stroke-linecap='round' stroke='#fff800' x1='29.5736' y1='57.8737' x2='64.2527' y2='50.4' stroke-width='1.6' /></g></svg>